<svg width="646" height="169" viewBox="0 0 646 169" fill="none" xmlns="http://www.w3.org/2000/svg">
<rect x="2.5" y="2.5" width="641" height="164" fill="white" stroke="#79A51F" stroke-width="5"/>
<rect x="11" y="8" width="155" height="152" fill="#79A51F"/>
<path d="M71.2501 66.25L53.5001 84L70.0344 101M71.2501 66.25L89.0001 48.5L107 66.25M71.2501 66.25C13 36 10.5 131.5 70.0344 101M71.2501 66.25C41 10 133 6 107 66.25M71.2501 66.25L107 102.25M70.0344 101L89.0001 120.5L107 102.25M70.0344 101C43.5 156.5 132 161.5 107 102.25M70.0344 101L107 66.25M107 66.25L125 84L107 102.25M107 66.25C165 38 163 128.5 107 102.25" stroke="white" stroke-width="8"/>
<path d="M203.32 105.85C196.777 105.85 191.582 103.877 187.734 99.9316C183.887 95.9668 181.963 90.4004 181.963 83.2324C181.963 76.3184 183.887 70.8105 187.734 66.709C191.602 62.5879 196.807 60.5273 203.35 60.5273C205.088 60.5273 206.65 60.625 208.037 60.8203C209.424 61.0156 210.752 61.2891 212.021 61.6406C213.018 61.9336 214.102 62.334 215.273 62.8418C216.445 63.3496 217.393 63.7891 218.115 64.1602V74.5605H217.002C216.475 74.0918 215.811 73.5352 215.01 72.8906C214.209 72.2266 213.301 71.582 212.285 70.957C211.27 70.332 210.146 69.8047 208.916 69.375C207.705 68.9258 206.436 68.7012 205.107 68.7012C203.525 68.7012 202.07 68.9551 200.742 69.4629C199.434 69.9512 198.184 70.8105 196.992 72.041C195.898 73.1543 195 74.6582 194.297 76.5527C193.613 78.4473 193.271 80.6836 193.271 83.2617C193.271 85.9766 193.633 88.2617 194.355 90.1172C195.078 91.9531 196.025 93.4375 197.197 94.5703C198.33 95.6641 199.59 96.4551 200.977 96.9434C202.383 97.4316 203.779 97.6758 205.166 97.6758C206.611 97.6758 207.988 97.4414 209.297 96.9727C210.605 96.4844 211.709 95.9473 212.607 95.3613C213.584 94.7559 214.443 94.1406 215.186 93.5156C215.928 92.8906 216.572 92.334 217.119 91.8457H218.115V102.1C217.314 102.471 216.387 102.9 215.332 103.389C214.277 103.857 213.193 104.258 212.08 104.59C210.713 105 209.434 105.312 208.242 105.527C207.051 105.742 205.41 105.85 203.32 105.85ZM243.039 96.416V89.5605C241.3 89.7363 239.894 89.8926 238.82 90.0293C237.746 90.1465 236.691 90.3906 235.656 90.7617C234.757 91.0742 234.054 91.5527 233.546 92.1973C233.058 92.8223 232.814 93.6621 232.814 94.7168C232.814 96.2598 233.224 97.3242 234.045 97.9102C234.884 98.4766 236.115 98.7598 237.736 98.7598C238.634 98.7598 239.552 98.5547 240.49 98.1445C241.427 97.7344 242.277 97.1582 243.039 96.416ZM243.039 101.514C242.336 102.1 241.701 102.627 241.134 103.096C240.588 103.564 239.845 104.033 238.908 104.502C237.99 104.951 237.091 105.293 236.213 105.527C235.353 105.762 234.142 105.879 232.58 105.879C229.67 105.879 227.248 104.902 225.314 102.949C223.4 100.996 222.443 98.5352 222.443 95.5664C222.443 93.125 222.931 91.1523 223.908 89.6484C224.884 88.1445 226.291 86.9531 228.127 86.0742C229.982 85.1758 232.199 84.5508 234.777 84.1992C237.355 83.8477 240.129 83.5742 243.097 83.3789V83.2031C243.097 81.3867 242.423 80.1367 241.076 79.4531C239.748 78.75 237.746 78.3984 235.07 78.3984C233.859 78.3984 232.443 78.623 230.822 79.0723C229.201 79.502 227.619 80.0586 226.076 80.7422H225.197V72.8027C226.213 72.5098 227.853 72.168 230.119 71.7773C232.384 71.3672 234.67 71.1621 236.974 71.1621C242.638 71.1621 246.759 72.1094 249.338 74.0039C251.935 75.8789 253.234 78.75 253.234 82.6172V105H243.039V101.514ZM283.812 81.7969H282.962C282.571 81.6602 282.005 81.5625 281.263 81.5039C280.521 81.4258 279.7 81.3867 278.802 81.3867C277.728 81.3867 276.595 81.543 275.404 81.8555C274.232 82.168 273.089 82.5391 271.976 82.9688V105H261.722V72.0996H271.976V76.8164C272.445 76.3867 273.089 75.8496 273.909 75.2051C274.749 74.541 275.511 74.0137 276.195 73.623C276.937 73.1738 277.796 72.793 278.773 72.4805C279.769 72.1484 280.706 71.9824 281.585 71.9824C281.917 71.9824 282.288 71.9922 282.698 72.0117C283.109 72.0312 283.48 72.0605 283.812 72.0996V81.7969ZM310.405 88.3008C310.405 85.0195 309.907 82.6758 308.911 81.2695C307.915 79.8633 306.382 79.1602 304.311 79.1602C303.393 79.1602 302.475 79.3066 301.557 79.5996C300.659 79.8926 299.77 80.332 298.891 80.918V97.4414C299.575 97.7148 300.259 97.9004 300.942 97.998C301.645 98.0957 302.339 98.1445 303.022 98.1445C305.503 98.1445 307.348 97.3242 308.559 95.6836C309.79 94.043 310.405 91.582 310.405 88.3008ZM320.893 88.0957C320.893 93.3301 319.565 97.5684 316.909 100.811C314.253 104.033 310.962 105.645 307.036 105.645C305.395 105.645 303.97 105.459 302.759 105.088C301.548 104.717 300.259 104.141 298.891 103.359L298.452 105H288.637V59.4141H298.891V75.5273C300.395 74.2383 301.929 73.1934 303.491 72.3926C305.054 71.5918 306.86 71.1914 308.911 71.1914C312.739 71.1914 315.688 72.6855 317.759 75.6738C319.848 78.6621 320.893 82.8027 320.893 88.0957ZM359.03 88.5645C359.03 93.9746 357.545 98.2422 354.577 101.367C351.627 104.473 347.448 106.025 342.038 106.025C336.666 106.025 332.487 104.473 329.498 101.367C326.53 98.2422 325.045 93.9746 325.045 88.5645C325.045 83.0957 326.53 78.8184 329.498 75.7324C332.487 72.627 336.666 71.0742 342.038 71.0742C347.428 71.0742 351.608 72.6367 354.577 75.7617C357.545 78.8672 359.03 83.1348 359.03 88.5645ZM348.512 88.623C348.512 86.6699 348.346 85.0488 348.014 83.7598C347.702 82.4512 347.262 81.4062 346.696 80.625C346.09 79.8047 345.407 79.2383 344.645 78.9258C343.883 78.5938 343.014 78.4277 342.038 78.4277C341.12 78.4277 340.289 78.5742 339.547 78.8672C338.805 79.1406 338.121 79.6777 337.496 80.4785C336.911 81.2402 336.442 82.2852 336.09 83.6133C335.739 84.9414 335.563 86.6113 335.563 88.623C335.563 90.6348 335.729 92.2656 336.061 93.5156C336.393 94.7461 336.823 95.7324 337.35 96.4746C337.897 97.2363 338.58 97.793 339.401 98.1445C340.221 98.4961 341.129 98.6719 342.125 98.6719C342.946 98.6719 343.776 98.4961 344.616 98.1445C345.475 97.793 346.159 97.2656 346.666 96.5625C347.272 95.7227 347.731 94.7168 348.043 93.5449C348.356 92.3535 348.512 90.7129 348.512 88.623ZM396.199 105H385.887V88.6816C385.887 87.3535 385.828 86.0352 385.711 84.7266C385.613 83.3984 385.418 82.4219 385.125 81.7969C384.773 81.0547 384.266 80.5273 383.602 80.2148C382.938 79.8828 382.049 79.7168 380.936 79.7168C380.096 79.7168 379.246 79.873 378.387 80.1855C377.527 80.498 376.609 80.9961 375.633 81.6797V105H365.379V72.0996H375.633V75.7324C377.312 74.3066 378.943 73.1934 380.525 72.3926C382.127 71.5918 383.895 71.1914 385.828 71.1914C389.188 71.1914 391.756 72.2559 393.533 74.3848C395.311 76.4941 396.199 79.5605 396.199 83.584V105ZM435.06 105V66.5332H420.411V61.377H455.509V66.5332H440.861V105H435.06ZM477.708 78.1934H477.415C477.005 78.0762 476.565 78.0078 476.096 77.9883C475.647 77.9492 475.1 77.9297 474.456 77.9297C472.971 77.9297 471.497 78.252 470.032 78.8965C468.567 79.541 467.18 80.498 465.872 81.7676V105H460.364V72.2754H465.872V77.1387C467.884 75.3613 469.632 74.1113 471.116 73.3887C472.62 72.6465 474.075 72.2754 475.481 72.2754C476.048 72.2754 476.468 72.2949 476.741 72.334C477.034 72.3535 477.356 72.3926 477.708 72.4512V78.1934ZM501.166 96.9434V87.8613C499.858 87.9785 498.198 88.1445 496.186 88.3594C494.194 88.5547 492.582 88.8379 491.352 89.209C489.887 89.6582 488.676 90.3516 487.719 91.2891C486.762 92.207 486.284 93.4961 486.284 95.1562C486.284 97.0312 486.811 98.4473 487.866 99.4043C488.92 100.361 490.463 100.84 492.495 100.84C494.233 100.84 495.805 100.469 497.211 99.7266C498.618 98.9648 499.936 98.0371 501.166 96.9434ZM501.166 101.514C500.717 101.846 500.112 102.314 499.35 102.92C498.608 103.506 497.885 103.975 497.182 104.326C496.205 104.834 495.258 105.225 494.34 105.498C493.442 105.771 492.172 105.908 490.532 105.908C489.184 105.908 487.905 105.654 486.694 105.146C485.483 104.639 484.418 103.926 483.5 103.008C482.621 102.109 481.918 101.006 481.391 99.6973C480.864 98.3691 480.6 96.9727 480.6 95.5078C480.6 93.2422 481.079 91.3184 482.036 89.7363C482.993 88.1348 484.506 86.8652 486.577 85.9277C488.413 85.0879 490.58 84.5117 493.08 84.1992C495.58 83.8672 498.276 83.623 501.166 83.4668V82.4121C501.166 81.123 500.971 80.0879 500.58 79.3066C500.19 78.5059 499.643 77.8906 498.94 77.4609C498.237 77.0117 497.377 76.7188 496.362 76.582C495.346 76.4258 494.301 76.3477 493.227 76.3477C491.957 76.3477 490.463 76.543 488.745 76.9336C487.026 77.3047 485.307 77.8516 483.588 78.5742H483.266V72.9785C484.282 72.6855 485.737 72.3633 487.631 72.0117C489.526 71.6602 491.401 71.4844 493.256 71.4844C495.502 71.4844 497.397 71.6602 498.94 72.0117C500.483 72.3633 501.87 72.998 503.1 73.916C504.291 74.8145 505.18 75.9766 505.766 77.4023C506.352 78.8281 506.645 80.5664 506.645 82.6172V105H501.166V101.514ZM528.316 105.732C526.07 105.732 524.01 105.391 522.135 104.707C520.26 104.004 518.648 102.949 517.301 101.543C515.953 100.137 514.908 98.3691 514.166 96.2402C513.424 94.0918 513.053 91.5723 513.053 88.6816C513.053 85.8105 513.434 83.3301 514.195 81.2402C514.977 79.1504 516.012 77.3926 517.301 75.9668C518.59 74.541 520.191 73.4473 522.105 72.6855C524.039 71.9043 526.109 71.5137 528.316 71.5137C530.113 71.5137 531.842 71.7676 533.502 72.2754C535.182 72.7832 536.676 73.3691 537.984 74.0332V80.2148H537.662C537.271 79.8828 536.764 79.502 536.139 79.0723C535.533 78.6426 534.791 78.2031 533.912 77.7539C533.15 77.3633 532.252 77.0215 531.217 76.7285C530.182 76.4355 529.186 76.2891 528.229 76.2891C525.377 76.2891 523.082 77.373 521.344 79.541C519.625 81.6895 518.766 84.7363 518.766 88.6816C518.766 92.5488 519.596 95.5664 521.256 97.7344C522.936 99.8828 525.26 100.957 528.229 100.957C530.025 100.957 531.734 100.586 533.355 99.8438C534.977 99.1016 536.412 98.1445 537.662 96.9727H537.984V103.154C537.438 103.408 536.754 103.721 535.934 104.092C535.113 104.443 534.371 104.707 533.707 104.883C532.77 105.156 531.93 105.361 531.188 105.498C530.445 105.654 529.488 105.732 528.316 105.732ZM571.052 105H563.816L551.599 89.209L549.431 91.3184V105H543.923V59.4141H549.431V86.1035L562.38 72.2754H569.236L555.789 85.957L571.052 105ZM588.915 105.762C583.7 105.762 579.648 104.297 576.757 101.367C573.886 98.418 572.45 94.2383 572.45 88.8281C572.45 83.4961 573.847 79.2578 576.64 76.1133C579.433 72.9492 583.085 71.3672 587.597 71.3672C589.628 71.3672 591.425 71.6602 592.987 72.2461C594.55 72.832 595.917 73.75 597.089 75C598.261 76.25 599.159 77.7832 599.784 79.5996C600.409 81.3965 600.722 83.6035 600.722 86.2207V89.209H578.046C578.046 93.0176 579.003 95.9277 580.917 97.9395C582.831 99.9512 585.478 100.957 588.857 100.957C590.068 100.957 591.249 100.82 592.402 100.547C593.573 100.273 594.628 99.9219 595.566 99.4922C596.562 99.043 597.402 98.6133 598.085 98.2031C598.769 97.7734 599.335 97.373 599.784 97.002H600.107V103.008C599.462 103.262 598.661 103.584 597.704 103.975C596.747 104.346 595.888 104.639 595.126 104.854C594.052 105.146 593.075 105.371 592.196 105.527C591.337 105.684 590.243 105.762 588.915 105.762ZM595.361 84.9902C595.321 83.5059 595.146 82.2266 594.833 81.1523C594.521 80.0781 594.071 79.1699 593.486 78.4277C592.841 77.6074 592.011 76.9824 590.995 76.5527C589.999 76.123 588.759 75.9082 587.275 75.9082C585.81 75.9082 584.56 76.1328 583.525 76.582C582.509 77.0117 581.581 77.6465 580.741 78.4863C579.921 79.3457 579.296 80.3027 578.866 81.3574C578.437 82.3926 578.163 83.6035 578.046 84.9902H595.361ZM624.532 78.1934H624.239C623.829 78.0762 623.389 78.0078 622.921 77.9883C622.471 77.9492 621.925 77.9297 621.28 77.9297C619.796 77.9297 618.321 78.252 616.856 78.8965C615.391 79.541 614.005 80.498 612.696 81.7676V105H607.188V72.2754H612.696V77.1387C614.708 75.3613 616.456 74.1113 617.94 73.3887C619.444 72.6465 620.899 72.2754 622.305 72.2754C622.872 72.2754 623.292 72.2949 623.565 72.334C623.858 72.3535 624.18 72.3926 624.532 72.4512V78.1934Z" fill="#79A51F"/>
</svg>
